<svg id="Ebene_1" data-name="Ebene 1" xmlns="http://www.w3.org/2000/svg" viewBox="0 0 329 279"><defs><style>.cls-1{font-size:300px;font-family:BigJohn, Big John;}.cls-2{opacity:0.7;}</style></defs><title>affirmate_logo_int_svg</title><text class="cls-1" transform="translate(-303.02637 239.5)">M</text><g class="cls-2"><polygon points="247.387 174.256 286.586 47.658 283.186 34.458 240.587 34.458 202.387 174.256 247.387 174.256"/><polygon points="320.385 174.256 291.386 65.457 261.386 174.256 320.385 174.256"/><polygon points="70.386 174.256 129.385 174.256 100.386 65.457 70.386 174.256"/><polygon points="228.587 34.458 182.188 34.458 140.788 174.455 190.187 174.455 228.587 34.458"/><polygon points="95.586 47.658 92.186 34.458 49.587 34.458 11.387 174.256 56.387 174.256 95.586 47.658"/><path d="M27.62256,195.93945,8.46533,239.33691H20.98877l3.40967-8.43164H42.74951l3.40967,8.43164H58.93066L39.71191,195.93945Zm.37207,25.91455,5.57959-13.8872,5.57959,13.8872Z"/><path d="M102.75781,201.8291a7.54771,7.54771,0,0,1,3.53369.9917l2.91358-8.30713a15.98424,15.98424,0,0,0-7.81153-1.73633c-8.98925,0-14.01123,5.27-14.01123,13.32959v.86768H74.68066V206.231c0-2.97608,1.42579-4.40186,3.90577-4.40186a7.54777,7.54777,0,0,1,3.53369.9917l2.91357-8.30713a15.9842,15.9842,0,0,0-7.81152-1.73633c-8.98926,0-14.01123,5.27-14.01123,13.32959v.86768H58.31348v8.80371h4.89746v23.55859H74.99023V215.77832H87.38232v23.55859h11.7793V215.77832h7.688v-8.80371H98.85205V206.231C98.85205,203.25488,100.27783,201.8291,102.75781,201.8291Z"/><path d="M122.03857,189.4917c-4.33984,0-7.1914,2.728-7.1914,6.26172s2.85156,6.26172,7.1914,6.26172,7.19141-2.728,7.19141-6.44776C129.23,192.03369,126.37842,189.4917,122.03857,189.4917Z"/><rect x="116.14893" y="205.73486" width="11.7793" height="33.60205"/><path d="M147.77734,209.76465v-4.02979H136.55615v33.602h11.7793v-15.437c0-5.88965,3.28564-8.30761,8.05957-8.30761a21.45,21.45,0,0,1,2.666.186V205.17676C154.10107,205.17676,150.19531,206.72656,147.77734,209.76465Z"/><polygon points="204.63 195.939 189.751 220.986 174.5 195.939 164.395 195.939 164.395 239.337 175.74 239.337 175.74 216.956 186.837 235.059 192.293 235.059 203.452 216.336 203.576 239.337 214.859 239.337 214.735 195.939 204.63 195.939"/><path d="M237.30518,205.17676c-5.26954,0-10.97364,1.36426-14.81739,3.90576l3.96778,7.99756a15.655,15.655,0,0,1,9.11377-2.91358c4.64941,0,6.94336,1.92188,7.12939,5.33155h-6.69531c-10.41553,0-14.94141,3.84375-14.94141,10.04345,0,5.82764,4.46387,10.35352,12.52344,10.35352,4.89746,0,8.2456-1.67383,9.91943-4.89795v4.33984H254.478V220.67578C254.478,210.0127,248.21631,205.17676,237.30518,205.17676Zm5.39355,23.37256a5.803,5.803,0,0,1-5.82764,3.90576c-2.79,0-4.40185-1.42578-4.40185-3.40967,0-2.0459,1.36426-3.40967,5.146-3.40967h5.0835Z"/><path d="M278.59668,230.78125c-2.10791,0-3.53418-1.36377-3.53418-3.84375V215.77832h7.688v-8.80371h-7.688V198.2334H263.2832v8.74121h-4.89746v8.80371h4.89746v11.2832c0,8.61768,5.022,12.8335,13.63965,12.8335a15.83543,15.83543,0,0,0,8.18311-1.92188l-2.91358-8.2456A6.45016,6.45016,0,0,1,278.59668,230.78125Z"/><path d="M322.98779,222.59766c0-11.09717-8.05957-17.4209-17.979-17.4209-10.60156,0-18.4751,7.19189-18.4751,17.29687,0,10.04346,7.74951,17.42139,19.71485,17.42139,6.38574,0,11.09765-1.85986,14.32128-5.45606l-6.1997-6.44726a10.76676,10.76676,0,0,1-7.74951,2.91357c-4.33985,0-7.25342-1.98388-8.24561-5.39355h24.42676C322.86377,224.58154,322.98779,223.46582,322.98779,222.59766ZM298.189,219.312a6.9896,6.9896,0,0,1,13.76319,0Z"/></g></svg>