<svg id="Ebene_1" data-name="Ebene 1" xmlns="http://www.w3.org/2000/svg" viewBox="0 0 329 279"><defs><style>.cls-1,.cls-2{opacity:0.7;}.cls-2{font-size:62px;font-family:Montserrat-ExtraBold, Montserrat;font-weight:700;}.cls-3{letter-spacing:0em;}.cls-4{letter-spacing:-0.02em;}</style></defs><title>AffirMate_Logo_svg</title><g class="cls-1"><polygon points="283.19 34.46 240.59 34.46 202.39 174.26 247.39 174.26 286.59 47.66 283.19 34.46"/><polygon points="291.39 65.46 261.39 174.26 320.38 174.26 291.39 65.46"/><polygon points="70.39 174.26 129.38 174.26 100.39 65.46 70.39 174.26"/><polygon points="182.19 34.46 140.79 174.46 190.19 174.46 228.59 34.46 182.19 34.46"/><polygon points="92.19 34.46 49.59 34.46 11.39 174.26 56.39 174.26 95.59 47.66 92.19 34.46"/></g><text class="cls-2" transform="translate(9.33 239.34)">Affi<tspan class="cls-3" x="123.44" y="0">r</tspan><tspan x="150.72" y="0">Ma</tspan><tspan class="cls-4" x="248.8" y="0">t</tspan><tspan x="275.53" y="0">e</tspan></text></svg>