<svg id="Ebene_1" data-name="Ebene 1" xmlns="http://www.w3.org/2000/svg" viewBox="0 0 329 279"><defs><style>.cls-1{opacity:0.7;}</style></defs><title>am_logo_svg</title><g class="cls-1"><polygon points="247.39 174.26 286.59 47.66 283.19 34.46 240.59 34.46 202.39 174.26 247.39 174.26"/><polygon points="320.38 174.26 291.39 65.46 261.39 174.26 320.38 174.26"/><polygon points="70.39 174.26 129.38 174.26 100.39 65.46 70.39 174.26"/><polygon points="228.59 34.46 182.19 34.46 140.79 174.46 190.19 174.46 228.59 34.46"/><polygon points="95.59 47.66 92.19 34.46 49.59 34.46 11.39 174.26 56.39 174.26 95.59 47.66"/><path d="M27.62,195.94,8.47,239.34H21l3.41-8.43H42.75l3.41,8.43H58.93l-19.22-43.4ZM28,221.85,33.57,208l5.58,13.88Z"/><path d="M102.76,201.83a7.5,7.5,0,0,1,3.53,1l2.92-8.31a16.11,16.11,0,0,0-7.82-1.73c-9,0-14,5.27-14,13.33V207H74.68v-.74c0-3,1.43-4.4,3.91-4.4a7.5,7.5,0,0,1,3.53,1L85,194.51a16.07,16.07,0,0,0-7.81-1.73c-9,0-14,5.27-14,13.33V207h-4.9v8.81h4.9v23.56H75V215.78H87.38v23.56H99.16V215.78h7.69V207h-8v-.74C98.85,203.25,100.28,201.83,102.76,201.83Z"/><path d="M122,189.49c-4.34,0-7.19,2.73-7.19,6.26S117.7,202,122,202s7.19-2.73,7.19-6.45C129.23,192,126.38,189.49,122,189.49Z"/><rect x="116.15" y="205.73" width="11.78" height="33.6"/><path d="M147.78,209.76v-4H136.56v33.61h11.78V223.9c0-5.89,3.28-8.31,8.06-8.31a20.37,20.37,0,0,1,2.66.19v-10.6C154.1,205.18,150.2,206.73,147.78,209.76Z"/><polygon points="204.63 195.94 189.75 220.99 174.5 195.94 164.4 195.94 164.4 239.34 175.74 239.34 175.74 216.96 186.84 235.06 192.29 235.06 203.45 216.34 203.58 239.34 214.86 239.34 214.74 195.94 204.63 195.94"/><path d="M237.31,205.18c-5.27,0-11,1.36-14.82,3.9l4,8a15.63,15.63,0,0,1,9.11-2.91c4.65,0,6.94,1.92,7.13,5.33H236c-10.41,0-14.94,3.84-14.94,10,0,5.83,4.47,10.36,12.53,10.36,4.89,0,8.24-1.68,9.91-4.9v4.34h11V220.68C254.48,210,248.22,205.18,237.31,205.18Zm5.39,23.37a5.8,5.8,0,0,1-5.83,3.91c-2.79,0-4.4-1.43-4.4-3.41s1.36-3.41,5.15-3.41h5.08Z"/><path d="M278.6,230.78c-2.11,0-3.54-1.36-3.54-3.84V215.78h7.69V207h-7.69v-8.74H263.28V207h-4.89v8.81h4.89v11.28c0,8.62,5,12.84,13.64,12.84a15.89,15.89,0,0,0,8.19-1.93l-2.92-8.24A6.44,6.44,0,0,1,278.6,230.78Z"/><path d="M323,222.6c0-11.1-8.06-17.42-18-17.42-10.6,0-18.48,7.19-18.48,17.29s7.75,17.43,19.72,17.43c6.38,0,11.1-1.86,14.32-5.46l-6.2-6.45a10.73,10.73,0,0,1-7.75,2.92c-4.34,0-7.25-2-8.24-5.4H322.8C322.86,224.58,323,223.47,323,222.6Zm-24.8-3.29a7,7,0,0,1,13.76,0Z"/></g></svg>